<?xml version="1.0" standalone="no"?>
<!DOCTYPE svg PUBLIC "-//W3C//DTD SVG 20010904//EN"
 "http://www.w3.org/TR/2001/REC-SVG-20010904/DTD/svg10.dtd">
<svg version="1.0" xmlns="http://www.w3.org/2000/svg"
 width="28.800000pt" height="28.800000pt" viewBox="0 0 28.800000 28.800000"
 preserveAspectRatio="xMidYMid meet">
<metadata>
Created by potrace 1.16, written by Peter Selinger 2001-2019
</metadata>
<g transform="translate(0.000000,28.800000) scale(0.002018,-0.002018)"
fill="#000000" stroke="none">
<path d="M6640 13668 c-87 -12 -203 -52 -255 -88 -54 -37 -148 -141 -171 -188
-73 -155 -51 -370 55 -512 134 -182 199 -237 374 -319 131 -63 161 -73 337
-119 209 -55 231 -57 580 -56 347 1 359 3 540 59 47 14 136 39 198 55 168 43
338 140 502 288 30 28 52 53 48 57 -4 4 -43 -7 -86 -24 -128 -49 -390 -101
-602 -120 -476 -42 -864 -40 -1089 4 -166 33 -219 52 -352 131 -206 122 -292
275 -226 404 19 38 33 51 97 83 63 32 82 37 118 33 66 -9 82 -21 82 -64 0
-145 210 -181 329 -58 18 19 36 49 40 68 7 34 -7 131 -27 180 -28 68 -143 158
-238 186 -47 14 -159 14 -254 0z"/>
<path d="M8745 12314 c-129 -73 -504 -193 -669 -214 -127 -16 -682 -13 -814 5
-61 8 -124 17 -139 21 -88 20 -244 69 -285 90 -91 46 -94 18 -5 -59 76 -66
103 -81 215 -113 101 -28 242 -84 242 -95 0 -25 -192 -43 -390 -36 -190 7
-248 17 -415 71 -60 19 -111 34 -113 31 -4 -4 19 -19 163 -107 134 -81 248
-121 384 -134 36 -3 127 -14 201 -25 74 -10 174 -19 223 -19 55 0 87 -4 87
-11 0 -19 -151 -81 -219 -90 -36 -5 -93 -13 -126 -19 -94 -16 -417 -48 -557
-56 -71 -4 -128 -11 -128 -15 0 -5 19 -13 43 -19 23 -6 58 -15 77 -21 136 -36
622 -36 775 1 239 57 458 141 745 285 325 164 470 260 645 429 71 69 127 127
125 130 -3 2 -32 -11 -65 -30z"/>
<path d="M9240 11959 c-85 -33 -186 -71 -225 -86 -38 -14 -113 -44 -165 -65
-119 -49 -345 -131 -470 -170 -193 -61 -339 -109 -510 -169 -96 -33 -222 -76
-280 -94 -58 -18 -123 -41 -145 -50 -22 -10 -95 -35 -162 -56 -105 -34 -125
-44 -144 -72 -13 -17 -68 -86 -123 -152 -90 -108 -189 -254 -331 -487 -52 -85
-120 -184 -311 -450 -62 -86 -120 -172 -130 -190 -9 -18 -31 -54 -50 -80 -18
-25 -42 -65 -54 -88 -27 -53 -134 -233 -170 -285 -15 -22 -37 -60 -49 -84
l-23 -44 -51 50 c-149 145 -360 234 -622 264 -55 6 -192 12 -305 12 -181 0
-222 -3 -350 -26 -230 -42 -328 -74 -495 -159 -140 -71 -277 -170 -435 -313
-30 -28 -91 -80 -135 -117 -85 -70 -220 -206 -271 -273 -44 -57 -150 -250
-173 -315 -47 -133 -61 -204 -61 -306 0 -56 4 -114 9 -130 5 -16 17 -62 26
-103 29 -126 56 -174 178 -323 42 -51 133 -125 186 -152 95 -49 238 -64 459
-48 128 9 138 12 217 51 98 48 250 178 307 262 33 48 38 65 49 154 15 124 5
169 -52 230 -59 64 -122 87 -249 93 -141 6 -210 -9 -263 -56 -59 -54 -87 -120
-87 -211 l0 -73 -32 6 c-40 8 -55 21 -78 66 -36 71 -52 159 -48 260 4 82 10
107 44 185 33 77 49 100 119 170 44 44 120 109 169 145 48 36 120 89 160 118
39 29 116 76 171 104 55 27 125 65 156 84 60 36 93 45 248 68 179 27 560 17
625 -16 87 -44 183 -108 207 -137 45 -54 46 -72 6 -134 -20 -30 -61 -104 -92
-163 -58 -112 -178 -317 -201 -344 -7 -8 -53 -85 -102 -170 -158 -273 -224
-378 -415 -658 -188 -276 -196 -286 -220 -294 -12 -3 -58 -16 -102 -27 -173
-46 -247 -101 -421 -308 -52 -62 -99 -115 -104 -118 -16 -10 -142 -202 -181
-274 -58 -110 -112 -159 -243 -224 -205 -101 -275 -126 -429 -152 -78 -13
-173 -31 -212 -40 -40 -9 -139 -19 -230 -22 -138 -4 -174 -2 -263 16 -158 33
-233 68 -397 185 -189 135 -264 211 -385 392 -214 317 -244 371 -265 464 -7
30 -23 93 -36 140 -19 73 -22 108 -22 250 1 242 25 337 144 574 124 246 214
368 468 634 156 164 174 179 342 292 175 118 237 150 293 150 23 0 27 -3 20
-17 -5 -10 -9 -48 -9 -85 1 -63 3 -70 35 -103 41 -43 138 -98 198 -114 23 -7
98 -12 167 -12 138 -1 133 -3 242 89 61 51 105 133 124 229 10 48 10 81 1 151
-19 139 -44 183 -127 218 -172 72 -378 80 -720 29 -262 -39 -292 -47 -465
-135 -63 -33 -163 -82 -223 -109 -123 -57 -251 -138 -352 -222 -421 -352 -792
-800 -893 -1079 -111 -307 -117 -341 -117 -690 0 -267 2 -294 28 -433 29 -157
39 -191 110 -359 103 -247 352 -557 577 -720 195 -141 317 -194 590 -258 251
-58 280 -61 580 -67 562 -11 783 30 1092 202 65 36 121 65 125 65 4 0 8 -102
8 -227 0 -257 1 -261 83 -430 35 -72 61 -110 100 -148 29 -27 79 -88 112 -135
56 -83 89 -117 217 -227 235 -202 511 -329 828 -380 145 -23 814 -23 965 1
157 24 392 87 645 171 88 30 180 59 205 65 129 34 465 182 563 248 23 16 76
48 117 73 72 42 329 217 418 285 55 41 209 204 293 308 111 137 133 168 194
271 32 55 71 118 86 141 16 23 60 104 100 180 39 76 75 144 80 149 16 22 98
193 114 240 28 83 186 432 251 555 63 118 101 182 189 320 28 43 93 152 145
242 52 89 119 198 148 241 29 42 57 87 62 100 14 35 225 312 325 427 36 41 89
104 119 140 127 155 365 379 474 446 102 63 296 158 397 194 50 18 124 45 165
61 106 39 153 55 340 110 91 27 176 54 190 61 50 25 175 111 192 132 43 52 6
182 -62 218 -56 29 -200 25 -287 -8 -102 -38 -267 -97 -373 -134 -86 -29 -244
-100 -405 -182 -102 -52 -256 -150 -363 -231 -150 -114 -444 -412 -587 -595
-140 -178 -255 -331 -293 -387 -14 -22 -54 -76 -87 -120 -145 -191 -326 -467
-385 -585 -18 -36 -54 -101 -80 -145 -26 -44 -62 -107 -80 -140 -177 -324
-270 -482 -427 -719 -65 -98 -156 -240 -203 -315 -86 -139 -103 -163 -258
-377 -161 -223 -211 -281 -364 -417 -92 -83 -212 -166 -223 -155 -2 2 9 19 26
38 92 105 303 392 339 460 7 14 76 119 152 234 215 321 356 548 534 858 18 31
46 76 62 100 55 80 92 149 141 261 44 102 107 208 223 372 80 114 164 240 213
320 27 44 74 114 103 155 30 41 68 102 84 134 16 32 75 116 131 185 56 69 129
170 161 224 32 54 72 110 88 125 17 15 47 50 68 77 56 73 408 435 530 546 57
52 120 112 139 134 85 99 268 269 346 320 47 31 85 61 85 66 0 5 -69 9 -156 9
-142 0 -167 -3 -277 -31 -121 -31 -205 -67 -282 -119 -76 -52 -331 -179 -438
-220 -181 -68 -363 -83 -450 -39 -38 20 -76 61 -98 107 -12 24 -43 65 -70 92
-60 60 -126 79 -212 60 -113 -24 -162 -75 -187 -193 -42 -204 123 -416 365
-472 135 -31 161 -34 298 -41 75 -3 137 -9 137 -11 0 -3 -30 -42 -67 -88 -68
-84 -122 -170 -194 -309 -57 -110 -111 -194 -260 -402 -80 -112 -148 -221
-303 -486 -31 -54 -61 -100 -66 -103 -10 -6 -212 -344 -295 -495 -32 -58 -81
-145 -110 -195 -29 -49 -65 -113 -81 -142 -158 -281 -304 -495 -519 -758 -176
-216 -232 -282 -340 -396 -60 -64 -141 -149 -180 -190 -113 -120 -355 -268
-495 -302 -117 -29 -274 -65 -305 -71 -16 -3 -95 -19 -174 -36 -278 -60 -524
-76 -692 -45 -124 23 -295 80 -369 122 -80 46 -287 253 -367 368 -87 125 -116
194 -121 295 -6 114 12 278 36 332 38 86 329 453 419 529 58 49 184 106 249
113 61 7 62 6 93 -29 30 -34 31 -39 31 -127 0 -86 -2 -95 -36 -157 -20 -36
-60 -102 -88 -146 -113 -173 -147 -295 -111 -393 27 -72 62 -112 124 -140 48
-22 70 -26 153 -26 93 0 100 2 173 39 76 38 115 73 115 103 0 9 22 62 50 119
28 57 50 106 50 110 0 3 22 54 49 112 27 58 63 144 79 191 37 104 59 154 111
246 22 40 56 117 75 172 19 56 43 116 52 134 10 18 45 96 78 173 34 77 95 196
136 264 40 68 92 170 115 226 44 107 57 132 144 275 29 47 72 128 97 180 39
80 79 160 115 230 41 76 161 278 224 375 43 66 116 181 163 255 46 74 105 160
131 190 26 30 60 73 77 95 36 47 220 334 248 385 31 59 235 347 346 489 25 32
71 91 103 132 88 112 275 382 342 492 33 55 83 127 111 160 27 34 69 90 93
125 23 34 69 95 103 135 34 39 98 128 144 197 46 69 100 149 121 178 21 29 62
87 92 130 93 132 189 239 395 443 109 108 197 201 195 207 -2 5 -71 -16 -159
-49z m-1327 -1028 c-10 -16 -52 -83 -94 -148 -65 -100 -170 -284 -228 -399
-29 -56 -220 -349 -463 -709 -45 -67 -228 -363 -272 -440 -16 -27 -79 -129
-139 -225 -94 -149 -209 -340 -289 -480 -11 -19 -32 -55 -46 -80 -31 -55 -31
-54 -37 -49 -5 6 -80 222 -120 349 -15 47 -47 125 -71 174 l-45 90 57 85 c32
47 89 127 129 176 39 50 120 164 180 255 60 91 134 199 165 240 31 41 119 158
195 260 76 102 160 212 187 244 27 33 58 75 69 95 88 160 197 300 342 442 l88
86 92 17 c141 25 259 44 290 45 l29 1 -19 -29z m-2079 -2698 c50 -153 73 -246
106 -432 l11 -64 -54 -81 c-30 -45 -80 -128 -112 -186 -98 -179 -107 -193
-145 -250 -20 -30 -67 -107 -103 -170 -100 -174 -81 -166 -173 -73 -116 118
-196 153 -351 153 -51 0 -93 4 -93 9 0 5 29 51 64 102 35 52 76 117 92 144 15
28 63 102 107 165 125 179 152 221 182 280 15 30 49 85 76 121 78 108 135 194
174 261 46 78 143 200 154 193 5 -2 34 -80 65 -172z m-4853 -271 c-5 -10 -19
-80 -30 -156 -40 -265 -24 -698 34 -921 16 -62 82 -229 118 -300 38 -77 150
-240 215 -315 93 -108 241 -242 382 -345 67 -49 127 -93 133 -97 6 -4 8 -10 4
-14 -12 -12 -159 17 -237 47 -143 55 -357 216 -420 315 -19 30 -76 117 -126
193 -121 184 -159 254 -178 327 -9 33 -24 81 -35 105 -40 92 -53 210 -49 455
4 218 6 235 36 349 39 149 131 375 152 375 7 0 7 -6 1 -18z"/>
<path d="M10105 11860 c-160 -37 -273 -77 -365 -130 -25 -15 -71 -38 -103 -53
-56 -26 -159 -98 -187 -133 -20 -23 -189 -159 -257 -206 -122 -85 -415 -365
-511 -488 -36 -47 -97 -117 -135 -157 -67 -69 -108 -127 -234 -332 -32 -52
-76 -120 -98 -152 -140 -204 -249 -355 -310 -429 -39 -47 -104 -131 -145 -188
-41 -57 -99 -136 -128 -175 -29 -40 -82 -121 -119 -182 -111 -182 -268 -416
-323 -480 -28 -33 -83 -112 -123 -175 -39 -63 -86 -135 -103 -160 -31 -44
-137 -216 -145 -235 -2 -6 -25 -41 -50 -80 -26 -38 -69 -113 -96 -166 -28 -52
-55 -104 -61 -115 -35 -64 -172 -353 -172 -363 0 -6 -8 -28 -19 -49 -10 -20
-28 -66 -40 -102 -12 -36 -45 -114 -73 -175 -79 -170 -138 -305 -159 -364 -10
-30 -55 -124 -100 -209 -84 -162 -128 -262 -161 -372 -10 -36 -57 -141 -103
-235 -101 -204 -165 -388 -172 -495 -5 -71 -4 -76 21 -102 47 -46 179 -48 243
-3 12 9 29 37 37 63 23 71 42 121 49 128 4 4 7 13 7 21 0 8 41 95 90 194 50
99 90 187 90 194 0 16 80 217 110 275 11 22 20 44 20 51 0 6 11 37 24 68 44
104 116 289 116 300 0 44 385 839 451 932 11 16 62 112 114 213 52 102 105
202 120 223 14 21 35 54 47 73 12 19 54 82 93 140 39 58 89 137 110 175 21 39
57 95 80 125 23 30 77 109 119 175 42 66 114 167 159 225 46 58 104 134 129
170 25 36 60 79 78 95 18 17 57 64 88 105 70 95 290 365 361 443 29 32 62 78
72 101 31 64 86 139 180 241 123 134 233 249 324 340 115 114 521 537 730 759
111 118 231 226 251 226 5 0 20 -16 33 -35 28 -41 119 -121 152 -133 71 -26
171 -35 258 -24 106 13 145 31 228 107 74 66 87 101 81 215 -4 91 -29 148 -99
224 -57 63 -91 78 -217 100 -113 20 -155 19 -257 -4z"/>
<path d="M8023 8890 c-42 -10 -99 -53 -118 -90 -54 -104 36 -217 223 -281 75
-26 327 -37 441 -19 45 7 83 16 86 20 2 4 -44 20 -103 35 -152 41 -248 92
-343 183 -43 41 -91 94 -106 118 -16 24 -32 44 -38 43 -5 -1 -25 -5 -42 -9z"/>
<path d="M11087 8645 c-132 -27 -250 -82 -373 -172 -81 -61 -152 -150 -233
-294 -47 -83 -38 -90 32 -23 71 69 103 93 205 153 268 157 391 189 762 198
211 5 248 3 364 -16 70 -12 130 -20 133 -17 6 5 -80 60 -167 105 -120 64 -178
74 -430 77 -162 2 -244 -1 -293 -11z"/>
<path d="M11375 8169 c-22 -4 -56 -8 -75 -8 -33 -1 -91 -17 -420 -120 -175
-54 -322 -134 -570 -310 -282 -199 -471 -381 -689 -661 -100 -130 -246 -349
-237 -357 4 -5 89 76 189 178 100 103 217 212 259 243 42 30 148 91 235 134
131 65 180 84 274 105 159 36 282 47 509 47 163 0 206 -3 265 -20 39 -10 95
-26 125 -34 70 -19 161 -78 222 -143 36 -39 48 -61 53 -97 10 -64 -9 -183 -34
-217 -62 -84 37 -33 141 71 85 87 101 111 117 188 12 58 15 229 4 283 -9 48
-129 164 -213 207 -92 46 -159 55 -333 49 -125 -5 -156 -10 -209 -31 -34 -14
-63 -24 -65 -22 -17 17 63 81 150 121 84 39 258 65 432 65 189 0 262 -12 352
-55 132 -65 261 -236 271 -361 3 -34 9 -54 17 -54 20 0 36 77 42 205 l5 120
-43 105 c-40 100 -47 110 -133 195 -150 148 -248 186 -474 184 -70 -1 -145 -5
-167 -10z"/>
<path d="M9845 6453 c-183 -5 -354 -37 -550 -99 -104 -33 -474 -218 -526 -263
-55 -46 -154 -199 -175 -269 -27 -86 -25 -235 3 -288 60 -113 131 -155 275
-162 134 -6 157 0 222 59 74 67 108 139 114 240 l4 76 62 41 c111 74 152 89
271 102 281 29 707 21 761 -15 25 -16 74 -99 74 -126 0 -10 -47 -88 -105 -174
-100 -150 -112 -164 -281 -318 -283 -261 -498 -447 -638 -553 -125 -96 -265
-256 -292 -336 -22 -61 -25 -250 -6 -350 26 -133 232 -414 412 -560 24 -20 42
-39 39 -42 -7 -7 -146 37 -199 64 -92 47 -193 126 -274 214 -147 161 -191 262
-191 441 1 226 35 327 170 500 105 134 334 375 413 435 35 26 118 100 186 163
67 64 133 125 146 136 22 17 22 20 7 21 -26 0 -283 -97 -337 -128 -146 -83
-220 -131 -260 -168 -25 -22 -97 -85 -160 -139 -179 -152 -291 -296 -402 -512
-37 -73 -68 -143 -68 -155 0 -13 -7 -55 -15 -93 -20 -95 -20 -336 0 -435 28
-130 81 -284 142 -409 24 -48 264 -321 282 -321 4 0 32 -22 62 -48 78 -70 150
-118 248 -167 164 -81 285 -112 496 -125 193 -12 713 -12 875 0 112 8 260 33
281 46 8 5 123 30 359 79 224 46 445 125 700 248 127 62 313 171 375 221 22
17 69 53 105 78 82 58 171 152 234 248 27 41 75 107 106 145 68 83 119 159
190 280 29 50 77 124 105 166 89 127 178 326 231 514 25 88 36 268 31 493 -4
200 -6 224 -31 307 -55 180 -107 266 -222 368 -69 61 -197 131 -305 167 -79
27 -277 49 -339 39 -25 -5 -110 -15 -190 -23 -278 -29 -457 -100 -669 -264
-55 -42 -126 -96 -158 -119 -32 -24 -106 -89 -164 -145 -96 -94 -107 -108
-119 -155 -23 -100 7 -183 95 -260 72 -63 100 -72 220 -72 86 -1 111 3 180 28
125 45 239 106 365 196 155 110 152 109 247 110 80 0 84 -1 115 -33 32 -32 33
-34 33 -120 -1 -81 -3 -92 -39 -162 -21 -41 -51 -93 -66 -115 -15 -22 -46 -78
-70 -125 -23 -47 -66 -116 -95 -155 -73 -98 -380 -404 -473 -472 -42 -31 -93
-71 -113 -88 -67 -60 -326 -204 -489 -273 -127 -54 -196 -70 -385 -93 -88 -10
-191 -23 -230 -29 -38 -5 -152 -9 -252 -10 -176 0 -186 1 -275 30 -171 55
-327 187 -359 303 -16 61 -5 149 27 214 39 80 141 179 249 243 50 29 131 85
180 125 95 77 209 148 340 212 112 54 169 88 254 152 41 31 87 65 102 77 59
43 303 280 340 330 57 78 84 181 83 319 0 154 6 142 -248 440 -33 38 -60 57
-112 79 -38 16 -114 51 -169 77 -111 54 -320 123 -417 139 -58 9 -139 10 -343
3z m2969 -1231 c60 -184 43 -456 -43 -679 -35 -90 -145 -306 -191 -373 -132
-197 -317 -399 -450 -492 -201 -141 -437 -269 -577 -313 -92 -30 -332 -90
-386 -98 -60 -9 -29 18 36 31 29 6 111 36 182 67 379 164 679 395 970 748 213
258 293 386 371 595 79 209 99 347 69 482 -8 36 -14 71 -15 78 0 27 19 0 34
-46z"/>
<path d="M8185 4722 c-124 -188 -195 -277 -422 -523 -73 -81 -165 -188 -202
-239 -79 -106 -159 -191 -273 -287 -43 -38 -113 -108 -155 -156 -71 -83 -344
-339 -425 -401 -34 -25 -37 -26 -46 -9 -5 10 -12 32 -16 48 -13 55 -88 176
-147 239 -128 137 -420 298 -664 366 -43 12 -197 26 -415 39 -276 16 -551 -45
-698 -154 -229 -170 -355 -422 -356 -715 -1 -130 13 -209 56 -325 39 -104 137
-230 240 -308 162 -123 475 -192 923 -204 218 -5 252 -4 373 16 139 23 194 39
308 89 71 32 250 126 296 156 l27 18 19 -39 c23 -44 63 -192 87 -314 17 -90
13 -228 -8 -284 -6 -16 -28 -55 -48 -86 -49 -73 -106 -103 -182 -97 -55 5 -59
7 -225 123 -92 64 -94 65 -160 65 -77 0 -126 -23 -143 -68 -15 -38 -5 -140 19
-195 25 -56 150 -185 206 -211 88 -41 269 -45 413 -7 187 49 361 187 452 361
36 70 51 182 51 393 0 86 4 157 9 157 18 0 59 -67 89 -145 49 -129 61 -192 64
-328 2 -77 7 -126 13 -124 24 8 37 128 40 362 1 132 5 242 9 245 3 3 21 -9 39
-27 103 -97 158 -385 121 -635 -10 -64 13 -44 60 55 56 113 71 198 63 352 -8
162 -61 311 -181 510 -27 44 -58 94 -71 110 -12 17 -50 77 -84 135 -35 58 -80
126 -101 151 -21 25 -35 50 -32 55 4 5 43 39 87 76 131 109 310 301 493 531
85 106 111 128 98 85 -40 -135 -34 -680 9 -878 24 -109 97 -343 113 -363 6 -7
33 -57 62 -112 78 -150 85 -161 198 -285 152 -169 209 -210 407 -300 80 -37
165 -60 165 -46 0 6 -14 20 -31 30 -49 29 -176 162 -256 266 -95 127 -187 296
-208 386 -27 114 -16 120 40 24 84 -145 221 -272 369 -341 137 -64 426 -124
426 -89 0 6 -5 10 -11 10 -23 0 -269 171 -344 240 -138 125 -275 293 -315 385
-30 70 -59 235 -40 235 5 0 18 -17 29 -38 64 -126 290 -315 466 -390 153 -65
194 -73 391 -79 192 -6 269 2 384 39 36 11 72 27 80 34 12 12 -1 14 -88 14
-254 0 -460 68 -714 237 -85 56 -194 171 -247 259 -22 38 -54 87 -70 109 -72
96 -221 375 -237 442 -4 16 -15 45 -25 65 -31 61 -62 359 -53 498 7 116 46
241 132 420 l59 125 -64 124 c-60 115 -137 232 -152 230 -3 0 -37 -48 -76
-107z m-2380 -1377 c211 -38 279 -69 378 -175 96 -102 148 -203 155 -301 7
-103 -10 -149 -76 -210 -30 -27 -66 -56 -81 -63 -157 -82 -770 -103 -967 -34
-60 21 -144 80 -206 145 -64 68 -98 152 -98 246 0 170 179 334 430 392 78 18
365 19 465 0z"/>
</g>
</svg>
