<?xml version="1.0" standalone="no"?>
<!DOCTYPE svg PUBLIC "-//W3C//DTD SVG 20010904//EN"
 "http://www.w3.org/TR/2001/REC-SVG-20010904/DTD/svg10.dtd">
<svg version="1.0" xmlns="http://www.w3.org/2000/svg"
 width="28.800000pt" height="28.800000pt" viewBox="0 0 28.800000 28.800000"
 preserveAspectRatio="xMidYMid meet">
<metadata>
Created by potrace 1.16, written by Peter Selinger 2001-2019
</metadata>
<g transform="translate(0.000000,28.800000) scale(0.002022,-0.002022)"
fill="#000000" stroke="none">
<path d="M6576 13645 c-38 -8 -101 -27 -140 -42 -59 -23 -84 -41 -151 -108
-89 -88 -115 -135 -135 -237 -11 -55 -11 -82 0 -155 17 -117 30 -150 92 -241
84 -122 200 -233 294 -280 184 -92 336 -144 546 -186 184 -38 403 -46 686 -26
120 9 167 17 257 45 61 19 160 48 221 64 61 16 130 37 155 48 163 74 443 282
416 310 -2 2 -35 -10 -73 -25 -38 -16 -103 -36 -144 -46 -41 -9 -93 -21 -115
-27 -157 -37 -327 -56 -745 -81 -348 -20 -749 17 -900 83 -84 37 -243 133
-277 167 -87 87 -127 177 -116 258 9 67 39 104 113 141 109 54 200 40 200 -30
0 -39 30 -90 67 -114 36 -24 145 -24 190 0 58 31 102 77 114 119 22 85 -35
228 -117 291 -93 71 -126 82 -254 84 -68 1 -143 -4 -184 -12z"/>
<path d="M8715 12300 c-87 -52 -269 -117 -550 -196 -135 -37 -746 -43 -975 -9
-117 18 -316 72 -378 104 -43 22 -72 27 -72 12 0 -15 120 -120 162 -142 22
-11 76 -30 121 -41 94 -24 229 -78 234 -94 12 -37 -377 -52 -582 -23 -56 8
-210 51 -315 87 -36 12 21 -30 132 -97 164 -99 253 -127 488 -151 58 -7 123
-15 145 -20 22 -5 95 -12 162 -16 67 -4 120 -10 118 -14 -3 -4 -34 -22 -71
-40 -61 -29 -95 -37 -304 -70 -97 -15 -317 -38 -499 -51 -88 -7 -161 -15 -161
-19 0 -11 123 -39 220 -50 99 -12 539 -14 600 -4 66 12 220 55 323 90 56 19
124 42 152 51 47 14 240 107 500 240 187 96 346 210 490 353 69 68 125 125
125 127 0 8 -19 0 -65 -27z"/>
<path d="M9235 11955 c-60 -24 -171 -66 -246 -94 -74 -27 -162 -62 -195 -76
-102 -46 -291 -113 -634 -224 -156 -51 -388 -131 -490 -169 -30 -11 -91 -32
-135 -45 -243 -77 -400 -136 -415 -157 -8 -12 -65 -83 -125 -158 -99 -122
-169 -226 -346 -512 -29 -47 -77 -119 -106 -160 -311 -437 -330 -464 -433
-645 -25 -44 -80 -136 -122 -205 -41 -69 -83 -140 -92 -158 l-17 -33 -68 63
c-42 39 -109 85 -172 120 -170 92 -299 123 -589 139 -205 11 -285 8 -470 -22
-334 -54 -572 -156 -798 -342 -385 -316 -528 -456 -619 -608 -67 -111 -127
-236 -138 -284 -4 -17 -16 -57 -26 -89 -28 -88 -25 -218 7 -358 31 -132 58
-197 105 -254 19 -23 53 -67 77 -98 67 -87 170 -160 271 -192 61 -20 247 -28
396 -17 112 9 127 12 206 51 67 32 107 61 183 133 53 51 110 110 125 133 44
66 65 230 40 307 -16 48 -74 105 -139 137 -51 25 -64 26 -190 27 -165 0 -208
-15 -264 -92 -40 -55 -56 -108 -56 -187 0 -30 -4 -57 -8 -60 -5 -3 -24 3 -43
12 -42 21 -74 76 -94 164 -53 235 39 451 258 605 45 32 100 74 122 94 57 52
165 123 275 181 52 28 122 65 156 84 103 56 275 84 522 84 258 0 325 -12 427
-75 28 -17 62 -37 77 -44 30 -15 88 -91 88 -115 0 -8 -22 -53 -49 -98 -26 -46
-70 -126 -98 -178 -49 -94 -154 -271 -179 -300 -6 -8 -24 -37 -40 -65 -178
-323 -426 -711 -632 -992 -38 -53 -59 -73 -75 -73 -45 0 -213 -60 -277 -98
-64 -39 -85 -61 -283 -287 -83 -95 -178 -234 -241 -350 -57 -105 -103 -147
-235 -211 -174 -84 -271 -122 -358 -139 -88 -16 -273 -52 -348 -67 -28 -6
-134 -8 -240 -5 -165 3 -201 7 -270 28 -103 32 -225 98 -353 194 -161 120
-243 208 -373 400 -108 159 -129 193 -200 320 -15 28 -35 79 -43 115 -55 240
-56 245 -56 380 0 74 5 166 10 205 28 191 184 512 358 735 40 52 150 175 243
272 163 170 178 183 347 296 163 108 248 152 296 152 13 0 16 -5 11 -17 -14
-37 -17 -74 -10 -120 9 -61 51 -103 156 -156 73 -38 79 -39 210 -44 158 -7
174 -2 278 93 70 64 101 120 122 223 17 81 -1 235 -34 295 -71 130 -398 170
-832 103 -242 -38 -276 -48 -455 -139 -69 -35 -155 -76 -192 -92 -155 -66
-304 -169 -493 -341 -187 -169 -247 -230 -353 -354 -265 -310 -361 -459 -438
-676 -65 -185 -82 -268 -95 -455 -15 -211 -7 -396 25 -585 28 -168 44 -227 85
-318 15 -34 36 -83 45 -108 18 -51 146 -256 204 -329 20 -25 93 -103 162 -173
181 -186 354 -299 580 -378 68 -24 367 -93 473 -109 103 -15 463 -20 705 -8
185 8 199 10 346 53 153 43 237 80 393 168 45 26 86 47 90 47 4 0 7 -91 5
-202 -2 -127 1 -225 8 -263 7 -33 38 -114 70 -180 47 -96 70 -131 115 -175 32
-30 82 -92 112 -137 85 -128 348 -341 538 -435 93 -46 287 -113 405 -138 205
-45 925 -45 1150 0 126 25 350 90 592 171 98 32 183 59 189 59 23 0 319 124
414 174 185 97 358 207 602 383 106 77 242 212 347 346 33 43 78 99 98 124 20
26 65 94 99 152 34 58 75 124 89 146 15 22 59 101 97 175 39 74 91 173 115
220 25 47 57 119 72 160 15 41 36 95 48 120 28 60 105 235 125 285 9 22 30 62
46 89 16 27 47 85 69 129 40 80 77 142 151 251 22 33 52 82 66 110 36 69 205
351 241 401 16 22 38 58 49 81 11 22 55 86 98 142 43 56 94 123 113 149 101
137 398 468 505 563 153 136 179 156 312 228 131 71 224 113 353 158 52 18
147 52 210 74 109 39 214 71 325 100 28 7 68 22 89 33 58 28 178 109 198 132
25 29 23 101 -4 155 -33 65 -77 84 -193 83 -83 0 -99 -3 -205 -45 -63 -25
-135 -53 -160 -61 -268 -92 -281 -97 -520 -217 -197 -98 -401 -236 -545 -370
-177 -164 -348 -349 -455 -490 -30 -40 -82 -106 -115 -146 -33 -39 -91 -118
-130 -174 -38 -56 -99 -141 -135 -188 -37 -48 -77 -105 -90 -127 -13 -22 -40
-60 -60 -85 -20 -25 -54 -74 -74 -110 -21 -36 -48 -78 -60 -95 -23 -31 -69
-110 -128 -225 -19 -36 -54 -99 -77 -140 -52 -89 -127 -224 -168 -300 -16 -30
-78 -136 -137 -234 -95 -158 -146 -238 -303 -471 -23 -33 -67 -104 -98 -158
-31 -53 -86 -137 -122 -185 -36 -48 -88 -120 -115 -160 -72 -106 -197 -259
-264 -322 -143 -134 -297 -250 -312 -235 -3 3 12 24 35 48 74 78 258 334 368
512 38 61 98 153 134 205 37 52 98 145 135 205 38 61 99 157 136 215 37 58 78
125 92 150 64 116 183 317 234 397 32 48 75 128 96 178 22 49 47 106 57 125
25 48 158 255 218 337 27 37 71 103 99 146 47 75 122 190 210 322 22 33 50 80
62 105 13 25 68 101 122 170 55 69 125 167 156 219 82 136 445 534 695 762 59
53 138 132 176 175 116 131 269 265 362 316 58 32 38 38 -121 38 -136 0 -166
-3 -270 -30 -140 -35 -167 -46 -272 -109 -132 -79 -316 -176 -391 -206 -38
-15 -90 -35 -115 -45 -25 -10 -96 -26 -159 -36 -91 -14 -125 -15 -171 -6 -75
14 -137 53 -156 98 -31 74 -102 152 -158 174 -36 13 -143 12 -181 -3 -88 -35
-125 -83 -145 -189 -13 -67 4 -170 36 -225 40 -69 129 -158 191 -191 92 -49
239 -79 436 -88 75 -4 137 -10 137 -14 0 -4 -26 -38 -58 -76 -32 -38 -75 -98
-97 -134 -21 -36 -48 -81 -60 -100 -11 -19 -33 -61 -48 -92 -28 -60 -129 -217
-265 -410 -45 -65 -103 -152 -129 -195 -107 -181 -173 -296 -173 -303 0 -5
-17 -30 -38 -57 -51 -66 -197 -306 -273 -450 -16 -30 -37 -67 -46 -81 -10 -15
-27 -45 -38 -67 -11 -22 -34 -62 -51 -90 -17 -27 -50 -86 -74 -130 -24 -44
-55 -98 -70 -120 -14 -22 -48 -78 -75 -125 -85 -150 -188 -295 -368 -520 -163
-203 -300 -363 -377 -440 -41 -42 -110 -115 -152 -162 -56 -62 -108 -106 -185
-158 -215 -142 -282 -164 -883 -286 -313 -63 -563 -58 -800 18 -176 56 -274
120 -385 251 -37 42 -70 77 -75 77 -18 0 -155 206 -181 274 -25 64 -28 84 -29
191 0 139 13 233 40 290 27 55 167 241 275 364 50 57 96 112 104 123 8 10 56
44 108 74 74 44 108 58 159 65 59 8 69 7 95 -11 37 -27 53 -85 47 -171 -4 -54
-13 -80 -53 -153 -26 -48 -58 -100 -71 -116 -13 -15 -45 -72 -71 -127 -76
-159 -71 -266 16 -365 52 -60 168 -87 287 -68 110 17 224 94 224 151 0 5 20
52 45 103 25 52 45 97 45 101 0 3 25 59 55 124 30 65 66 153 80 197 14 43 55
135 89 204 35 69 78 164 94 212 17 47 42 109 57 137 14 28 34 74 46 103 11 29
34 81 50 116 16 35 29 65 29 68 0 3 36 64 80 138 43 73 94 170 113 217 50 123
56 134 125 249 35 58 110 200 167 315 57 116 135 261 172 322 140 232 375 591
424 649 51 60 114 152 250 367 174 275 368 552 479 682 28 33 63 78 78 100 14
22 70 101 123 175 53 74 126 184 163 245 37 60 91 139 119 175 29 36 69 90 90
121 20 30 71 96 111 145 41 49 89 114 107 144 40 67 257 376 337 479 31 41
155 173 275 293 119 120 217 222 217 228 0 16 -18 11 -135 -35z m-1335 -1016
c0 -5 -33 -61 -73 -122 -82 -125 -195 -321 -256 -443 -31 -61 -340 -539 -421
-650 -33 -45 -74 -108 -91 -140 -18 -32 -51 -88 -74 -124 -23 -36 -60 -96 -84
-135 -23 -38 -68 -113 -100 -165 -32 -52 -93 -151 -136 -220 -72 -115 -202
-332 -263 -440 -42 -74 -73 -122 -77 -118 -6 6 -69 190 -110 322 -20 65 -57
158 -81 206 l-44 88 71 104 c39 56 95 132 123 168 63 79 145 198 212 305 49
80 273 385 449 613 52 67 125 171 162 230 69 111 118 179 162 223 14 15 40 45
56 69 17 23 62 70 101 105 78 70 105 80 294 106 47 7 103 15 125 19 22 4 43 8
48 9 4 0 7 -4 7 -10z m-2085 -2725 c47 -138 115 -426 115 -485 0 -11 -24 -55
-52 -98 -29 -44 -82 -132 -118 -197 -65 -118 -83 -149 -176 -299 -28 -44 -69
-114 -92 -155 -23 -41 -46 -82 -51 -90 -8 -11 -22 -1 -73 51 -125 128 -213
169 -363 169 -52 0 -96 4 -99 9 -4 5 4 22 17 38 27 32 108 157 143 218 12 23
72 113 133 202 61 88 123 185 137 214 15 30 57 97 93 149 118 168 148 214 169
256 33 64 142 198 153 187 6 -6 34 -81 64 -169z m-4855 -289 c-5 -14 -19 -88
-30 -165 -37 -261 -22 -638 36 -889 18 -75 109 -300 148 -363 77 -124 117
-182 173 -249 72 -87 246 -250 318 -299 80 -54 215 -162 215 -172 0 -10 -60
-2 -143 18 -121 29 -279 118 -409 231 -76 65 -94 87 -133 158 -16 28 -58 93
-93 145 -36 52 -75 109 -86 125 -56 83 -132 276 -162 415 -10 46 -14 136 -14
313 0 241 1 251 30 372 26 106 94 298 130 365 16 29 32 26 20 -5z"/>
<path d="M10090 11851 c-168 -40 -268 -74 -360 -125 -30 -16 -68 -36 -85 -44
-16 -8 -49 -24 -72 -35 -23 -11 -77 -52 -121 -91 -108 -97 -215 -184 -277
-226 -116 -78 -406 -355 -513 -490 -41 -52 -105 -126 -142 -165 -37 -38 -87
-101 -111 -140 -23 -38 -48 -77 -55 -85 -7 -8 -41 -62 -76 -120 -64 -107 -254
-383 -340 -494 -256 -330 -416 -553 -463 -646 -10 -19 -45 -76 -79 -127 -34
-51 -82 -125 -108 -165 -26 -40 -69 -99 -95 -131 -76 -93 -187 -263 -424 -647
-90 -146 -296 -550 -342 -670 -14 -36 -43 -112 -65 -170 -22 -58 -60 -148 -85
-200 -56 -117 -123 -270 -144 -330 -9 -25 -60 -130 -113 -235 -56 -111 -112
-238 -134 -305 -20 -63 -73 -187 -116 -275 -99 -203 -170 -413 -170 -507 0
-56 3 -69 25 -90 66 -67 275 -28 275 51 0 28 83 227 153 366 36 72 77 164 91
206 14 42 43 118 66 170 22 52 48 114 56 139 8 25 19 54 24 65 33 75 86 212
106 275 13 41 28 84 33 95 4 11 19 45 31 75 12 30 38 87 57 125 20 39 67 133
105 210 38 77 78 158 89 180 12 22 35 67 52 100 17 33 58 110 92 170 34 61 96
178 137 260 44 88 123 222 191 323 65 95 135 206 158 247 22 40 61 102 87 137
26 34 77 109 112 166 36 57 111 162 167 233 56 71 108 139 114 151 7 13 39 52
73 88 34 36 75 85 91 110 34 51 295 375 368 458 27 30 57 73 68 95 30 66 50
93 163 216 17 19 33 41 36 49 3 7 96 105 205 216 310 315 659 677 799 829 109
119 167 174 258 245 14 11 27 2 100 -71 l83 -84 96 -18 c82 -15 109 -16 183
-7 101 13 132 26 203 84 78 65 94 90 104 166 14 117 -7 189 -84 283 -58 71
-104 94 -229 113 -120 19 -152 19 -248 -3z"/>
<path d="M7962 8858 c-109 -53 -121 -170 -27 -257 99 -91 209 -123 430 -122
140 0 275 16 275 32 0 4 -17 10 -37 13 -96 17 -233 68 -310 116 -77 48 -167
136 -219 215 -20 31 -53 32 -112 3z"/>
<path d="M11064 8635 c-187 -41 -390 -158 -475 -272 -83 -111 -165 -250 -155
-261 4 -3 30 17 59 44 62 60 110 97 194 147 271 163 395 196 783 204 227 4
267 2 369 -16 63 -11 117 -19 119 -17 13 14 -193 127 -283 157 -64 20 -92 23
-310 25 -177 3 -256 0 -301 -11z"/>
<path d="M11325 8158 c-101 -15 -193 -38 -363 -94 -90 -30 -170 -54 -177 -54
-14 0 -149 -69 -260 -133 -94 -54 -370 -253 -470 -337 -156 -132 -388 -391
-529 -590 -109 -154 -170 -249 -163 -256 2 -3 89 80 191 184 210 213 283 270
476 370 242 126 423 163 795 164 174 1 219 -2 260 -16 28 -9 78 -23 111 -31
76 -17 159 -62 229 -127 67 -61 79 -95 73 -208 -4 -71 -10 -94 -32 -128 -38
-60 -8 -54 87 17 40 30 122 121 150 167 14 24 37 163 37 226 0 124 -15 165
-84 233 -41 40 -90 75 -148 104 l-88 45 -137 4 c-160 5 -265 -7 -329 -38 -25
-12 -48 -19 -52 -15 -4 4 13 25 38 47 118 105 284 143 600 136 170 -4 202 -7
250 -26 88 -34 144 -75 205 -149 67 -80 102 -148 117 -233 6 -33 15 -60 19
-60 18 0 32 77 37 202 l4 136 -43 103 c-44 104 -77 145 -190 246 -49 44 -143
91 -214 108 -67 16 -301 18 -400 3z"/>
<path d="M9800 6440 c-80 -4 -163 -10 -185 -14 -96 -17 -258 -58 -350 -90
-118 -40 -450 -207 -506 -254 -47 -40 -147 -182 -167 -237 -30 -86 -41 -187
-28 -252 30 -143 107 -211 264 -233 96 -13 177 -2 222 30 49 35 108 109 125
158 9 26 19 78 22 116 7 84 17 95 148 161 l90 45 183 15 c101 8 236 15 300 15
138 0 348 -17 373 -30 17 -10 79 -111 79 -131 0 -6 -39 -73 -87 -148 -61 -94
-114 -162 -173 -221 -141 -141 -415 -389 -590 -534 -285 -237 -299 -249 -370
-333 -105 -123 -114 -148 -113 -318 1 -77 6 -162 12 -188 29 -126 238 -408
398 -538 35 -28 62 -54 59 -56 -5 -6 -140 34 -186 55 -84 38 -213 137 -298
230 -103 112 -130 156 -167 270 -25 75 -27 91 -22 195 3 61 10 138 16 170 22
134 127 288 369 545 75 79 168 168 206 197 39 30 106 87 148 128 43 41 103 98
134 126 31 29 54 54 51 57 -9 9 -222 -68 -310 -112 -112 -57 -244 -140 -292
-184 -27 -25 -98 -87 -156 -137 -179 -155 -287 -290 -394 -495 -82 -157 -106
-267 -106 -478 1 -197 29 -320 129 -563 44 -108 64 -134 214 -287 167 -171
266 -246 418 -321 93 -45 136 -60 266 -94 106 -27 365 -38 769 -32 318 5 397
9 485 26 58 10 118 24 134 30 16 7 73 21 125 31 53 11 149 31 215 44 155 33
329 84 424 127 24 11 62 27 85 35 46 18 202 90 282 132 178 92 456 292 541
389 27 32 74 94 103 138 30 44 72 103 96 130 51 61 124 169 194 289 29 49 74
121 100 160 65 95 131 230 171 346 18 52 37 103 41 112 5 9 17 54 26 100 12
64 16 148 17 363 l1 280 -29 95 c-15 52 -46 133 -68 179 -78 162 -237 289
-461 366 -92 32 -285 50 -369 35 -29 -5 -102 -14 -163 -20 -171 -17 -290 -49
-443 -122 -92 -43 -466 -317 -501 -367 -12 -17 -42 -45 -67 -63 -26 -18 -58
-53 -72 -78 -23 -38 -27 -57 -26 -115 1 -89 24 -137 99 -202 68 -59 105 -71
217 -72 71 -1 102 4 170 28 117 40 203 81 278 133 36 24 109 74 163 111 l97
67 84 0 c81 0 86 -1 115 -30 71 -72 51 -205 -59 -380 -15 -25 -53 -92 -83
-148 -30 -57 -81 -138 -113 -179 -69 -89 -405 -419 -473 -465 -25 -17 -68 -50
-96 -73 -75 -63 -293 -186 -470 -266 -109 -49 -226 -78 -400 -99 -88 -10 -199
-24 -248 -30 -49 -7 -168 -10 -270 -8 -165 4 -189 7 -254 30 -149 53 -284 163
-333 270 -24 52 -25 126 -5 196 30 101 152 230 279 296 31 16 100 65 153 108
111 89 215 154 371 233 125 63 213 120 337 220 106 85 328 304 360 354 32 52
75 212 75 279 -1 131 -31 196 -159 342 -37 41 -79 92 -94 112 -28 38 -64 58
-302 166 -123 56 -307 116 -405 131 -70 12 -144 12 -370 1z m2999 -1214 c47
-126 52 -366 12 -521 -33 -126 -58 -189 -128 -335 -97 -198 -222 -374 -379
-536 -112 -114 -148 -143 -309 -244 -242 -154 -390 -222 -595 -275 -36 -9 -99
-25 -140 -36 -79 -20 -135 -25 -126 -11 3 5 31 14 63 22 32 7 96 29 143 50 47
21 108 48 135 59 56 25 142 74 293 170 120 75 363 288 465 406 222 257 332
405 402 544 87 174 149 365 160 491 6 61 -12 213 -30 253 -4 10 -3 17 3 17 6
0 20 -24 31 -54z"/>
<path d="M8179 4714 c-41 -60 -86 -128 -102 -151 -37 -55 -193 -237 -350 -408
-71 -77 -149 -170 -174 -206 -45 -68 -161 -191 -313 -334 -47 -44 -131 -128
-185 -186 -171 -181 -383 -365 -400 -347 -3 3 -11 27 -18 54 -18 68 -85 178
-149 244 -63 66 -259 203 -329 231 -27 10 -71 29 -97 42 -47 24 -162 66 -237
87 -45 12 -199 27 -410 39 -267 15 -548 -43 -687 -141 -99 -70 -207 -194 -272
-311 -23 -42 -49 -113 -68 -190 -27 -102 -32 -140 -31 -232 2 -258 78 -433
260 -596 161 -145 479 -223 958 -236 393 -10 563 30 873 203 64 36 121 66 126
67 15 3 44 -55 65 -133 92 -333 89 -451 -19 -598 -67 -92 -176 -107 -276 -36
-219 155 -198 144 -279 144 -68 0 -77 -2 -108 -30 -43 -37 -53 -93 -32 -175
18 -67 53 -121 127 -192 70 -68 122 -93 216 -104 145 -18 313 14 447 84 97 51
232 181 287 276 49 84 61 162 62 394 0 103 4 187 8 187 13 0 67 -86 89 -141
47 -119 60 -182 66 -327 6 -160 17 -172 40 -45 9 52 14 153 13 301 0 122 4
222 8 222 19 0 83 -80 105 -130 13 -30 35 -107 47 -170 20 -98 22 -135 17
-257 -3 -79 -1 -143 3 -143 5 0 27 39 51 87 55 115 72 220 59 370 -8 94 -46
244 -70 278 -3 6 -17 35 -30 65 -19 46 -102 183 -295 485 -18 28 -42 59 -54
69 -32 29 -26 48 31 91 112 85 366 356 537 573 72 91 99 113 87 70 -34 -121
-31 -671 5 -848 25 -126 95 -342 128 -399 15 -25 43 -77 63 -116 66 -129 83
-152 187 -266 133 -147 214 -212 331 -266 159 -74 303 -115 235 -67 -105 74
-243 220 -331 352 -53 79 -124 214 -144 273 -24 71 -35 139 -23 139 5 0 32
-39 60 -88 37 -63 76 -111 140 -173 129 -125 270 -191 508 -238 68 -14 164
-11 130 3 -52 23 -283 185 -348 244 -156 143 -292 316 -329 420 -20 54 -37
202 -25 202 4 0 15 -17 26 -38 58 -113 277 -305 421 -370 30 -13 70 -31 89
-39 98 -44 164 -55 355 -60 129 -4 213 -1 260 7 80 14 206 58 206 71 0 5 -51
9 -114 9 -244 0 -442 67 -698 237 -80 53 -209 186 -244 252 -13 25 -42 71 -63
101 -86 120 -212 352 -241 445 -7 22 -21 57 -31 77 -30 59 -61 360 -53 498 8
119 37 213 120 393 35 76 64 144 64 151 0 18 -116 234 -151 281 -17 22 -36 49
-43 59 -12 18 -19 11 -87 -90z m-2341 -1395 c178 -37 226 -61 323 -158 129
-128 188 -261 169 -376 -5 -27 -9 -56 -9 -63 -1 -20 -91 -111 -136 -137 -60
-35 -134 -53 -288 -70 -256 -28 -585 -13 -698 31 -58 23 -122 67 -186 127 -68
64 -113 166 -113 257 0 146 135 294 334 367 93 34 144 41 324 42 149 1 200 -3
280 -20z"/>
</g>
</svg>
